<svg xmlns="http://www.w3.org/2000/svg" viewBox="0 0 512 512"><defs><linearGradient id="bg" x1="0" y1="0" x2="1" y2="1"><stop stop-color="#b792d6"/><stop offset="1" stop-color="#f6c6aa"/></linearGradient></defs><rect width="512" height="512" rx="116" fill="url(#bg)"/><circle cx="256" cy="270" r="145" fill="#fff8f2"/><path d="M135 190 126 82l96 66M377 190 386 82l-96 66" fill="#f6c6aa" stroke="#9b6a9f" stroke-width="16" stroke-linejoin="round"/><path d="M165 245c0-23 18-41 41-41s41 18 41 41M265 245c0-23 18-41 41-41s41 18 41 41" fill="none" stroke="#493c50" stroke-width="17" stroke-linecap="round"/><circle cx="206" cy="246" r="8" fill="#493c50"/><circle cx="306" cy="246" r="8" fill="#493c50"/><path d="M238 292c10-10 26-10 36 0-5 15-12 23-18 23s-13-8-18-23Z" fill="#d86676"/><path d="M256 315c0 29-31 35-52 19M256 315c0 29 31 35 52 19" fill="none" stroke="#493c50" stroke-width="12" stroke-linecap="round"/><g fill="#fff8f2"><circle cx="93" cy="379" r="18"/><circle cx="133" cy="354" r="18"/><circle cx="174" cy="379" r="18"/><path d="M93 420c-38 0-48-29-24-49 18-15 30 5 24 49Z"/></g></svg>